<svg width="22" height="22" viewBox="0 0 22 22" fill="none" xmlns="http://www.w3.org/2000/svg">
<path d="M20.68 8.98498C20.7235 7.7254 20.4481 6.47524 19.8792 5.35058C19.4932 4.88911 18.9576 4.57769 18.3656 4.47058C15.917 4.2484 13.4583 4.15734 11 4.19778C8.55066 4.1555 6.1008 4.24363 3.66081 4.46178C3.17842 4.54953 2.73199 4.7758 2.37601 5.11298C1.58401 5.84338 1.49601 7.09298 1.40801 8.14898C1.28034 10.0476 1.28034 11.9527 1.40801 13.8514C1.43347 14.4457 1.52197 15.0357 1.67201 15.6114C1.77812 16.0558 1.99279 16.467 2.29681 16.8082C2.65521 17.1632 3.11203 17.4024 3.60801 17.4946C5.50522 17.7288 7.41685 17.8258 9.32801 17.785C12.408 17.829 15.1096 17.785 18.304 17.5386C18.8122 17.452 19.2819 17.2126 19.6504 16.8522C19.8968 16.6057 20.0808 16.304 20.1872 15.9722C20.5019 15.0065 20.6565 13.9958 20.6448 12.9802C20.68 12.4874 20.68 9.51298 20.68 8.98498ZM9.01121 13.5082V8.06098L14.2208 10.7978C12.76 11.6074 10.8328 12.5226 9.01121 13.5082Z" fill="white"/>
</svg>
