<svg width="40" height="40" viewBox="0 0 40 40" fill="none" xmlns="http://www.w3.org/2000/svg">
  <rect width="40" height="40" rx="20" fill="#008C44"/>
  <path d="M28.1114 24.9791V27.3877C28.1124 27.6113 28.0665 27.8327 27.9767 28.0375C27.8869 28.2424 27.7553 28.4263 27.5902 28.5775C27.4251 28.7286 27.2302 28.8437 27.018 28.9154C26.8057 28.987 26.5808 29.0136 26.3577 28.9935C23.8822 28.725 21.5043 27.8808 19.4151 26.5286C17.4713 25.2959 15.8233 23.6512 14.5882 21.7113C13.2286 19.6168 12.3825 17.2321 12.1185 14.7504C12.0984 14.5283 12.1248 14.3046 12.1961 14.0933C12.2674 13.882 12.382 13.6879 12.5326 13.5233C12.6832 13.3586 12.8665 13.2271 13.0708 13.137C13.2751 13.0469 13.496 13.0003 13.7194 13.0001H16.1328C16.5232 12.9962 16.9017 13.1342 17.1977 13.3883C17.4938 13.6424 17.6871 13.9952 17.7418 14.381C17.8436 15.1519 18.0325 15.9087 18.3049 16.6371C18.4131 16.9245 18.4365 17.2368 18.3724 17.5371C18.3082 17.8373 18.1592 18.1129 17.9429 18.3312L16.9212 19.3509C18.0664 21.3609 19.734 23.0252 21.748 24.1682L22.7697 23.1485C22.9885 22.9326 23.2646 22.7839 23.5654 22.7198C23.8663 22.6558 24.1792 22.6792 24.4672 22.7872C25.197 23.059 25.9554 23.2476 26.7277 23.3492C27.1185 23.4042 27.4754 23.6007 27.7306 23.9012C27.9857 24.2017 28.1212 24.5853 28.1114 24.9791Z" stroke="white" stroke-width="1.7" stroke-linecap="round" stroke-linejoin="round"/>
</svg>
