<svg width="20" height="20" viewBox="0 0 20 20" fill="none" xmlns="http://www.w3.org/2000/svg">
<path d="M0 9C0 4.90575 2.34681 2.15252 4.29516 0.740337C5.04936 0.193687 5.98494 0 6.91641 0H15C17.7614 0 20 2.23757 20 4.99899V14.7616C20 15.5572 19.6935 16.3277 19.0899 16.8461C16.8982 18.7283 14.6902 19.5 12 19.5C9 19.5 7.03807 18.0848 6 18.5C3.5 19.5 0.646447 19.3536 1 19C1.5 18.5 3 17.5 3 16.5C3 15.5 0 14 0 9Z" fill="white"/>
<path fill-rule="evenodd" clip-rule="evenodd" d="M11.1037 7.69553C10.8969 7.73589 10.7707 7.88217 10.6497 8.03854C10.0192 7.48872 9.32307 7.45341 8.63707 7.86199C7.80982 8.34623 7.50213 9.13312 7.60806 10.0562C7.70894 10.9087 8.07716 11.6098 8.97503 11.9024C9.53493 12.084 10.0545 12.0184 10.5135 11.6451C10.6346 11.5493 10.6699 11.5695 10.7556 11.6754C10.9221 11.8923 11.2096 11.9679 11.4618 11.8721C11.709 11.7964 11.8805 11.5644 11.8805 11.3021C11.8906 10.2933 11.8956 9.28445 11.8805 8.27561C11.8754 7.87208 11.5022 7.61483 11.1037 7.69553ZM9.07591 10.49C8.94476 10.3135 8.87414 10.1016 8.86405 9.87966C8.85901 9.16843 9.24741 8.73968 9.80227 8.77498C10.0393 8.78003 10.2613 8.89604 10.4025 9.09277C10.685 9.47612 10.685 10.1066 10.4025 10.49C10.3521 10.5556 10.2966 10.6111 10.2361 10.6565C9.86784 10.9288 9.34829 10.8532 9.07591 10.49ZM16.168 7.60978C14.9574 7.64509 14.1049 8.61357 14.1453 9.90992C14.1251 11.171 15.1693 12.1243 16.4858 11.9932C17.6913 11.8721 18.4732 10.9692 18.4328 9.69302C18.3925 8.43198 17.4543 7.56943 16.168 7.60978ZM15.6283 10.495C15.477 10.2882 15.4013 10.0411 15.4114 9.78886C15.4114 9.15834 15.7947 8.74472 16.3395 8.77498C16.5766 8.78003 16.7985 8.90109 16.9398 9.09277C17.2273 9.47612 17.2273 10.1218 16.9347 10.5051C16.8893 10.5556 16.8439 10.606 16.7884 10.6464C16.4253 10.9288 15.9057 10.8582 15.6283 10.495ZM13.7025 9.68798C13.702 9.42736 13.7014 9.16675 13.7014 8.90613C13.7014 8.64402 13.702 8.38135 13.7025 8.1185C13.7036 7.59222 13.7048 7.0652 13.7014 6.54042C13.7014 6.13689 13.4442 5.88468 13.0608 5.88972C12.6875 5.88972 12.4404 6.14193 12.4353 6.53033C12.432 6.68819 12.4331 6.84382 12.4342 7.00019C12.4348 7.07865 12.4353 7.1573 12.4353 7.23651V11.2466C12.4353 11.5644 12.627 11.8317 12.8792 11.8973C12.9397 11.9125 13.0053 11.9175 13.0658 11.9175C13.424 11.9074 13.7065 11.6098 13.7014 11.2517C13.7048 10.7304 13.7037 10.2092 13.7025 9.68798ZM5.557 10.6904C5.30828 10.691 5.05593 10.6916 4.79838 10.6916C4.87909 10.5806 4.92953 10.515 4.98502 10.4494C5.6458 9.61714 6.30659 8.77981 6.96738 7.93744C7.15905 7.69027 7.35073 7.44311 7.47179 7.15559C7.60798 6.82268 7.4617 6.50489 7.1187 6.38888C6.96233 6.34853 6.80596 6.32835 6.64455 6.33339C5.74669 6.32835 4.84378 6.32835 3.94592 6.33339C3.81982 6.33339 3.69371 6.34853 3.57265 6.37879C3.38097 6.42419 3.22965 6.58056 3.18425 6.77223C3.11868 7.05471 3.29522 7.34223 3.58274 7.4078C3.7038 7.43302 3.8299 7.44815 3.95601 7.44815C4.22839 7.45068 4.50204 7.45068 4.77568 7.45068C5.04933 7.45068 5.32298 7.45067 5.59536 7.4532C5.6113 7.45453 5.62794 7.45271 5.64473 7.45087C5.69169 7.44573 5.73979 7.44047 5.77695 7.50364C5.73156 7.55912 5.68616 7.61965 5.64077 7.68017L5.64076 7.68018C4.85891 8.66884 4.07707 9.66254 3.30027 10.6512C3.10859 10.8984 3.00771 11.1707 3.14894 11.4734C3.29018 11.776 3.5777 11.8366 3.87026 11.8517C4.03942 11.8625 4.20602 11.8605 4.37371 11.8584C4.44103 11.8576 4.50853 11.8568 4.57644 11.8568C4.78088 11.8568 4.985 11.8571 5.18896 11.8574C5.80026 11.8583 6.41014 11.8593 7.02286 11.8517C7.45666 11.8467 7.68869 11.5793 7.64329 11.1808C7.60294 10.8631 7.38604 10.6966 6.98755 10.6916C6.51681 10.6882 6.04386 10.6893 5.557 10.6904Z" fill="#738079"/>
</svg>
