<svg width="16" height="16" viewBox="0 0 16 16" fill="none" xmlns="http://www.w3.org/2000/svg">
<path d="M13.35 6.66669C13.35 8.73876 12.0023 10.7469 10.5281 12.303C9.80435 13.067 9.07837 13.6924 8.5326 14.127C8.32472 14.2925 8.14376 14.4297 8 14.5358C7.85624 14.4297 7.67528 14.2925 7.4674 14.127C6.92163 13.6924 6.19565 13.067 5.47187 12.303C3.99773 10.7469 2.65 8.73876 2.65 6.66669C2.65 5.24778 3.21366 3.88698 4.21698 2.88367C5.2203 1.88035 6.58109 1.31669 8 1.31669C9.41891 1.31669 10.7797 1.88035 11.783 2.88367C12.7863 3.88699 13.35 5.24778 13.35 6.66669Z" stroke="#008C44" stroke-width="1.3" stroke-linecap="round" stroke-linejoin="round"/>
<path d="M9.35 6.66669C9.35 7.41227 8.74558 8.01669 8 8.01669C7.25442 8.01669 6.65 7.41227 6.65 6.66669C6.65 5.9211 7.25442 5.31669 8 5.31669C8.74558 5.31669 9.35 5.9211 9.35 6.66669Z" stroke="#008C44" stroke-width="1.3" stroke-linecap="round" stroke-linejoin="round"/>
</svg>
