<svg width="24" height="24" viewBox="0 0 24 24" fill="none" xmlns="http://www.w3.org/2000/svg">
<path d="M20.35 10C20.35 13.2387 18.2523 16.3303 16.0281 18.678C14.9294 19.8378 13.8284 20.7861 13.0013 21.4446C12.5884 21.7735 12.245 22.0291 12.0062 22.2016C12.0041 22.2031 12.002 22.2045 12 22.206C11.998 22.2045 11.9959 22.2031 11.9938 22.2016C11.755 22.0291 11.4116 21.7735 10.9987 21.4446C10.1716 20.7861 9.07065 19.8378 7.97187 18.678C5.74773 16.3303 3.65 13.2387 3.65 10C3.65 7.78544 4.52973 5.66159 6.09566 4.09566C7.66159 2.52973 9.78544 1.65 12 1.65C14.2146 1.65 16.3384 2.52973 17.9043 4.09566C19.4703 5.66159 20.35 7.78544 20.35 10Z" stroke="#9F9F9F" stroke-width="1.3" stroke-linecap="round" stroke-linejoin="round"/>
<path d="M14.35 10C14.35 11.2979 13.2979 12.35 12 12.35C10.7021 12.35 9.65 11.2979 9.65 10C9.65 8.70213 10.7021 7.65 12 7.65C13.2979 7.65 14.35 8.70213 14.35 10Z" stroke="#9F9F9F" stroke-width="1.3" stroke-linecap="round" stroke-linejoin="round"/>
</svg>
