<svg xmlns="http://www.w3.org/2000/svg" viewBox="0 0 357.93 94.42"><defs><style>.cls-1{fill:#fff;stroke:#e6e7e8;stroke-miterlimit:10;stroke-width:0.5px;}.cls-2{fill:#e29726;}.cls-3{fill:#019148;}</style></defs><title>Asset 1</title><g id="Layer_2" data-name="Layer 2"><g id="Layer_1-2" data-name="Layer 1"><rect class="cls-1" x="0.25" y="0.25" width="357.43" height="93.92" rx="15.83" ry="15.83"/><path class="cls-2" d="M72.2,18.31h9.26V36.53a5.81,5.81,0,0,0,1.29,3.94,5,5,0,0,0,4,1.49,4.85,4.85,0,0,0,3.91-1.51,5.83,5.83,0,0,0,1.29-3.92V18.31h9.26V36.18a12.84,12.84,0,0,1-3.57,9.52Q94,49.25,86.7,49.25T75.79,45.72a12.72,12.72,0,0,1-3.59-9.5Z"/><polygon class="cls-2" points="116.41 32.39 116.41 48.71 107.29 48.71 107.29 18.31 116.68 18.31 127.16 33.62 127.16 18.31 136.28 18.31 136.28 48.71 127.52 48.71 116.41 32.39"/><polygon class="cls-2" points="142.42 18.31 151.55 18.31 151.55 41.42 162.97 41.42 162.97 48.71 142.42 48.71 142.42 18.31"/><polygon class="cls-2" points="267.85 38 266.18 40.28 266.18 48.71 257.05 48.71 257.05 18.31 266.18 18.31 266.18 29.7 274.08 18.31 285.23 18.31 273.85 32.44 285.73 48.71 274.62 48.71 267.85 38"/><path class="cls-2" d="M219.78,25.38a14.88,14.88,0,0,0-5.94-5.58,17.68,17.68,0,0,0-8.21-2H181.85a17.72,17.72,0,0,0-8.38,2,14.87,14.87,0,0,0-5.94,5.58,15.5,15.5,0,0,0-2.17,8.16,15.5,15.5,0,0,0,2.17,8.16,14.86,14.86,0,0,0,5.94,5.58,17.71,17.71,0,0,0,8.38,2h23.84a17.66,17.66,0,0,0,8.16-2,14.87,14.87,0,0,0,5.94-5.58A15.5,15.5,0,0,0,222,33.53,15.5,15.5,0,0,0,219.78,25.38Zm-14.14,21.4a13.25,13.25,0,1,1,13.25-13.25A13.25,13.25,0,0,1,205.65,46.78Z"/><path class="cls-2" d="M226.27,25.7A14.13,14.13,0,0,1,232,20.42a17.51,17.51,0,0,1,8.11-1.87,19.77,19.77,0,0,1,7.52,1.28,11.58,11.58,0,0,1,4.53,3l-6.82,5.6a5.4,5.4,0,0,0-1.94-1.75,5.75,5.75,0,0,0-2.82-.68,4.94,4.94,0,0,0-4,2,8.63,8.63,0,0,0-1.62,5.6,8.8,8.8,0,0,0,1.62,5.65,4.91,4.91,0,0,0,4,2,5.55,5.55,0,0,0,2.82-.71,5.66,5.66,0,0,0,1.94-1.78l6.82,5.66a11.57,11.57,0,0,1-4.53,3,19.78,19.78,0,0,1-7.52,1.28A17.51,17.51,0,0,1,232,46.75a14.06,14.06,0,0,1-5.73-5.31,14.9,14.9,0,0,1-2.09-7.89,14.75,14.75,0,0,1,2.09-7.86"/><path class="cls-3" d="M87,57.34a13.12,13.12,0,0,0-5.75-1.21H72.2V76.61h9.1A13,13,0,0,0,87,75.39a9.24,9.24,0,0,0,4-3.53,11.3,11.3,0,0,0,0-11,9.27,9.27,0,0,0-4-3.51M85.57,69A4.78,4.78,0,0,1,83.87,71a4.64,4.64,0,0,1-2.6.73H78.35V61h3a4.51,4.51,0,0,1,3.62,1.45,5.72,5.72,0,0,1,1.25,3.86A6,6,0,0,1,85.57,69"/><path class="cls-3" d="M112.5,67.09a6.68,6.68,0,0,0,1.08-3.93,7.45,7.45,0,0,0-.85-3.56,6.26,6.26,0,0,0-2.51-2.53,7.89,7.89,0,0,0-3.94-.94H95.45V76.61h6.15V70h2.22l2.8,6.57h7l-3.68-7.25a6.87,6.87,0,0,0,2.57-2.27m-5.75-2.52a2,2,0,0,1-1.41.56h-3.74V61h3.74a2,2,0,0,1,1.41.56,1.92,1.92,0,0,1,.59,1.47,2,2,0,0,1-.59,1.5"/><polygon class="cls-3" points="116.93 76.61 132.32 76.61 132.32 71.69 123.07 71.69 123.07 68.59 132.11 68.59 132.11 63.68 123.07 63.68 123.07 61.04 132.32 61.04 132.32 56.13 116.93 56.13 116.93 76.61"/><polygon class="cls-3" points="173.97 56.13 170.41 66.57 166.85 56.13 158.36 56.13 158.36 76.61 164.51 76.61 164.51 63.68 169.04 76.61 171.78 76.61 176.31 63.68 176.31 76.61 182.46 76.61 182.46 56.13 173.97 56.13"/><polygon class="cls-3" points="148.93 56.13 143.2 56.13 145.06 61.85 145.07 61.84 145.68 63.76 145.68 63.76 147.22 68.57 148.96 73.97 148.96 73.97 149.75 76.61 156.41 76.61 148.93 56.13"/><path class="cls-3" d="M145.68,63.76h0Z"/><polygon class="cls-3" points="133.72 76.61 140.38 76.61 141.09 74.25 141.09 74.25 141.09 74.25 141.17 73.97 141.18 73.97 142.68 69.06 142.68 69.06 142.7 69 142.7 69 142.73 68.91 144.13 64.67 141.2 56.13 133.72 76.61"/><polygon class="cls-3" points="208.2 67.87 200.68 67.87 200.68 76.24 194.31 76.24 194.31 55.64 200.68 55.64 200.68 62.92 208.2 62.92 208.2 55.64 214.57 55.64 214.57 76.24 208.2 76.24 208.2 67.87"/><path class="cls-3" d="M218.13,60.42a10.26,10.26,0,0,1,4.14-3.78,13.38,13.38,0,0,1,11.69,0,10.43,10.43,0,0,1,0,18.62,13.38,13.38,0,0,1-11.69,0,10.61,10.61,0,0,1-4.14-14.84m14.4,2.64A5,5,0,0,0,230.74,61a5,5,0,0,0-5.26,0,5,5,0,0,0-1.78,2.07,6.95,6.95,0,0,0,0,5.78,5,5,0,0,0,1.78,2.07,5,5,0,0,0,5.26,0,5,5,0,0,0,1.78-2.07,6.94,6.94,0,0,0,0-5.78"/><polygon class="cls-3" points="260.25 63.23 255.55 76.24 252.72 76.24 248.02 63.23 248.02 76.24 241.66 76.24 241.66 55.64 250.45 55.64 254.13 66.14 257.82 55.64 266.61 55.64 266.61 76.24 260.25 76.24 260.25 63.23"/><polygon class="cls-3" points="269.79 55.64 285.73 55.64 285.73 60.58 276.15 60.58 276.15 63.23 285.51 63.23 285.51 68.18 276.15 68.18 276.15 71.3 285.73 71.3 285.73 76.24 269.79 76.24 269.79 55.64"/></g></g></svg>