<svg width="24" height="15" viewBox="0 0 24 15" fill="none" xmlns="http://www.w3.org/2000/svg">
<path fill-rule="evenodd" clip-rule="evenodd" d="M0.25 1.64868C0.25 1.23447 0.585786 0.898682 1 0.898682H23C23.4142 0.898682 23.75 1.23447 23.75 1.64868C23.75 2.0629 23.4142 2.39868 23 2.39868H1C0.585786 2.39868 0.25 2.0629 0.25 1.64868ZM0.25 7.64868C0.25 7.23447 0.585786 6.89868 1 6.89868H23C23.4142 6.89868 23.75 7.23447 23.75 7.64868C23.75 8.0629 23.4142 8.39868 23 8.39868H1C0.585786 8.39868 0.25 8.0629 0.25 7.64868ZM1 12.8987C0.585786 12.8987 0.25 13.2345 0.25 13.6487C0.25 14.0629 0.585786 14.3987 1 14.3987H23C23.4142 14.3987 23.75 14.0629 23.75 13.6487C23.75 13.2345 23.4142 12.8987 23 12.8987H1Z" fill="#008C44"/>
</svg>
