<svg width="201" height="71" viewBox="0 0 201 71" fill="none" xmlns="http://www.w3.org/2000/svg">
<g clip-path="url(#clip0)">
<path d="M90.625 6.25C76.7813 6.25 65.625 16.5937 65.625 29.2812C65.625 41.9687 76.875 52.3125 90.625 52.3125C104.375 52.3125 115.625 41.9687 115.625 29.2812C115.625 16.5937 104.438 6.25 90.625 6.25ZM90.625 43.9687C86.9381 43.7509 83.4867 42.0851 81.0225 39.3341C78.5583 36.5831 77.281 32.9698 77.4688 29.2812C77.2639 25.5822 78.5335 21.9528 80.9995 19.1881C83.4655 16.4234 86.9267 14.7489 90.625 14.5312C94.3119 14.7491 97.7633 16.4149 100.228 19.1659C102.692 21.9169 103.969 25.5302 103.781 29.2188C103.969 32.9073 102.692 36.5206 100.228 39.2716C97.7633 42.0226 94.3119 43.6884 90.625 43.9062" fill="#008C4F"/>
<path d="M200 38.4687C199.947 36.8052 199.531 35.1732 198.781 33.6875C197.996 32.1091 196.824 30.7547 195.375 29.75C194.535 29.1544 193.621 28.6711 192.656 28.3125C194.196 27.6083 195.538 26.5349 196.562 25.1875C197.987 23.096 198.669 20.5873 198.5 18.0625C198.488 16.5937 198.171 15.1435 197.568 13.8039C196.965 12.4644 196.091 11.2647 195 10.2812C192.261 8.17652 188.854 7.1332 185.406 7.34374H160.625V51.0937H182.312C185.608 51.1725 188.893 50.6971 192.031 49.6875C194.531 48.9233 196.721 47.3793 198.281 45.2812C199.648 43.2615 200.287 40.8372 200.094 38.4062L200 38.4687ZM179.437 14.0312C184.875 14.0312 186.719 15.1562 186.719 19.25C186.719 22.7187 184.594 24.1562 179.625 24.1562H176.719L173.594 32.3437H179.844C185.281 32.3437 188.125 34.1562 188.125 38.3125C188.125 42.4687 185 44.2812 179.594 44.2812H172.437V14.0937L179.437 14.0312Z" fill="#008C4F"/>
<path d="M156.031 40.4062C153.097 42.7288 149.461 43.985 145.719 43.9687C141.664 44.1039 137.722 42.628 134.752 39.8639C131.783 37.0998 130.03 33.2724 129.875 29.2187C130.022 25.1623 131.773 21.33 134.744 18.5642C137.715 15.7983 141.662 14.3253 145.719 14.4687C149.461 14.4525 153.097 15.7087 156.031 18.0312V9.09374C152.147 7.16597 147.867 6.17085 143.531 6.18749C129.406 6.18749 117.938 16.5 117.938 29.2187C117.938 41.9375 129.406 52.25 143.531 52.25C147.871 52.2709 152.155 51.2643 156.031 49.3125V40.4062Z" fill="#008C4F"/>
<path d="M72.7813 64.9375C72.7813 64.2188 72.7813 63.4688 72.7813 62.75V60.75C72.7813 60.1875 72.7813 59.4375 72.7813 58.5625H71.0312C71.0312 59 71.0312 59.5625 71.0312 60.4063C71.0312 61.25 71.0312 61.9375 71.0312 62.9687V64.5L70.4375 63.4063L69.4375 61.5937L68.5625 60.0312L67.7813 58.5625H65.625C65.625 59.3125 65.625 60.0312 65.625 60.8437V65.0312C65.625 65.8125 65.625 66.5 65.625 67.1562V67.3125H67.4375V67.1562C67.4375 66.3125 67.4375 65.7188 67.4375 65.1875C67.4375 64.6563 67.4375 63.7188 67.4375 62.875V61.2813L70.8437 67.3125H72.9688V67.1562C72.9688 66.4688 72.9688 65.75 72.9688 64.9375" fill="#008C4F"/>
<path d="M77.3125 60.4375C76.8433 60.442 76.3783 60.5266 75.9375 60.6875C75.4962 60.8226 75.0977 61.0703 74.7812 61.4063C74.4249 61.7547 74.157 62.1833 74 62.6563C73.814 63.2203 73.7294 63.8128 73.75 64.4063C73.7601 64.9955 73.91 65.5739 74.1875 66.0938C74.3984 66.5015 74.7244 66.8384 75.125 67.0625C75.4969 67.2715 75.9172 67.3793 76.3437 67.375C76.7365 67.3783 77.1237 67.2815 77.4688 67.0938C77.6841 66.9614 77.8745 66.7921 78.0312 66.5938C78.0878 67.0294 78.0878 67.4706 78.0312 67.9063C77.9775 68.1661 77.8336 68.3985 77.625 68.5625C77.3813 68.7131 77.0989 68.7891 76.8125 68.7813C76.1 68.7433 75.4008 68.5738 74.75 68.2813H74.5312L74.6875 70.0313C75.077 70.1422 75.4738 70.2257 75.875 70.2813C76.312 70.3119 76.7505 70.3119 77.1875 70.2813C77.8833 70.3194 78.57 70.109 79.125 69.6875C79.3826 69.4089 79.5751 69.0765 79.6886 68.7144C79.802 68.3523 79.8337 67.9696 79.7812 67.5938C79.7812 65.1563 79.7812 62.875 79.7812 60.875C79.0031 60.6809 78.2075 60.5658 77.4062 60.5313L77.3125 60.4375ZM78.125 64.2813C78.1119 64.6993 77.97 65.1031 77.7188 65.4375C77.6266 65.5587 77.5087 65.658 77.3737 65.7282C77.2386 65.7985 77.0896 65.8379 76.9375 65.8438C76.7659 65.8945 76.5842 65.901 76.4094 65.8628C76.2346 65.8245 76.0723 65.7427 75.9375 65.625C75.6544 65.2961 75.509 64.8709 75.5312 64.4375C75.493 63.9784 75.5681 63.517 75.75 63.0938C75.8823 62.7954 76.1143 62.5523 76.4063 62.4063C76.6836 62.2542 76.9964 62.1787 77.3125 62.1875C77.54 62.1484 77.7725 62.1484 78 62.1875C78.0559 62.9156 78.0559 63.6469 78 64.375" fill="#008C4F"/>
<path d="M83.25 59.25L83.7188 59.8125H84.9375L84.2188 58.4062H82.2187L81.5938 59.8125H82.8437L83.25 59.25Z" fill="#008C4F"/>
<path d="M85.9375 65.625C85.9375 65 85.9375 64.375 85.9375 63.7188V62.2813C85.9375 61.0625 85.0938 60.4375 83.5938 60.4375C82.7957 60.4458 82.0043 60.583 81.25 60.8438V62.4063H81.5C81.7974 62.2465 82.1119 62.1207 82.4375 62.0313C82.7834 61.9335 83.1406 61.8809 83.5 61.875C84.25 61.875 84.3437 62.1875 84.3437 62.4375C84.3437 62.6875 84.3438 62.8438 84.125 62.875C83.6929 63.0733 83.243 63.2303 82.7812 63.3438C82.212 63.509 81.681 63.7852 81.2187 64.1563C81.0306 64.3414 80.8877 64.5674 80.801 64.8167C80.7143 65.0659 80.6861 65.3319 80.7187 65.5938C80.7173 65.8562 80.7692 66.1161 80.8713 66.3578C80.9734 66.5996 81.1235 66.818 81.3125 67C81.5186 67.1986 81.7644 67.3513 82.0336 67.4482C82.3029 67.5452 82.5896 67.5841 82.875 67.5625H83.875L84.1563 66L83.875 66.1563C83.875 66.1563 83.5625 66.1563 83.0938 66.3438C82.625 66.5313 82.3438 65.9688 82.3438 65.7188C82.3276 65.6064 82.3423 65.4918 82.3864 65.3872C82.4304 65.2826 82.5021 65.192 82.5938 65.125C82.9203 64.9335 83.266 64.7764 83.625 64.6563C83.879 64.5891 84.1214 64.4837 84.3437 64.3438C84.3437 65.6875 84.3437 66.6875 84.3437 67.4688V67.625H86.1562V67.4688C86.1562 66.9688 86.1562 66.4688 86.1562 65.9375" fill="#008C4F"/>
<path d="M92.9062 66.1875C92.9062 65.9375 92.9062 65.5 92.9062 64.8438V62.5C92.8782 62.1249 92.794 61.7562 92.6562 61.4063C92.4955 61.083 92.2462 60.8121 91.9375 60.625C91.5514 60.4269 91.1213 60.3301 90.6875 60.3438C90.3294 60.3172 89.9704 60.3804 89.643 60.5278C89.3155 60.6751 89.0301 60.9019 88.8125 61.1875V60.5H87V60.6563C87 62.7188 87 64.875 87 66.9063V67.0625H88.8438V64.1563C88.8269 63.9274 88.8269 63.6976 88.8438 63.4688C88.8438 62.4375 89.375 61.9688 90.0937 61.9688C90.8125 61.9688 91.0937 62.3438 91.125 63.1563C91.1562 63.9688 91.125 65.5 91.125 66.9063V67.0625H93.0312V66.9063C93.0312 66.5313 93.0312 66.1875 93.0312 65.9375" fill="#008C4F"/>
<path d="M104.437 58.5625H102.437C102.437 59.25 102.437 60.3438 102.437 61.6875H99.3125C99.3125 61.3125 99.3125 60.8438 99.3125 60.2813V58.2813H97.3438C97.3438 59.6563 97.3438 61.0625 97.3438 62.5313C97.3438 64 97.3438 65.4375 97.3438 66.875V67.0313H99.3125V66.75C99.3261 66.521 99.3261 66.2915 99.3125 66.0625V63.1875H102.594C102.594 63.8438 102.594 64.4688 102.594 65.0625C102.594 65.6563 102.594 66.3125 102.594 66.875V67.0313H104.594V66.875C104.594 64.5625 104.594 61.6563 104.594 58.2813" fill="#008C4F"/>
<path d="M109.094 59.9688L108.406 58.4062H106.344L107.656 59.9688H109.094Z" fill="#008C4F"/>
<path d="M110.687 65.625V62.2813C110.687 61.0625 109.844 60.4375 108.375 60.4375C107.577 60.4458 106.786 60.583 106.031 60.8438V62.4063H106.281C106.565 62.2404 106.87 62.1143 107.187 62.0313C107.534 61.9357 107.891 61.8833 108.25 61.875C109 61.875 109.125 62.1875 109.125 62.4375C109.125 62.6875 109.125 62.8438 108.906 62.875C108.474 63.0733 108.024 63.2303 107.562 63.3438C106.99 63.5017 106.458 63.7785 106 64.1563C105.812 64.3414 105.669 64.5674 105.582 64.8167C105.496 65.0659 105.467 65.3319 105.5 65.5938C105.495 65.8539 105.541 66.1125 105.638 66.3541C105.735 66.5957 105.879 66.8154 106.062 67C106.277 67.1963 106.528 67.3473 106.802 67.4439C107.076 67.5406 107.366 67.5809 107.656 67.5625H108.625L108.938 66L108.656 66.1563C108.407 66.2912 108.127 66.356 107.844 66.3438C107.219 66.3438 107.125 65.9688 107.125 65.75C107.099 65.6328 107.108 65.5103 107.153 65.3987C107.198 65.2871 107.275 65.1916 107.375 65.125C107.698 64.9274 108.045 64.77 108.406 64.6563C108.653 64.596 108.886 64.49 109.094 64.3438C109.094 65.75 109.094 66.75 109.094 67.4688V67.625H110.875V67.4688C110.875 66.9688 110.875 66.4688 110.875 65.9375" fill="#008C4F"/>
<path d="M117.625 66.1875V63.4375C117.641 63.1565 117.641 62.8748 117.625 62.5937C117.628 62.2147 117.542 61.8402 117.375 61.5C117.234 61.1637 116.98 60.8873 116.656 60.7187C116.272 60.5166 115.84 60.4196 115.406 60.4375C115.053 60.4134 114.699 60.4779 114.377 60.6253C114.055 60.7726 113.775 60.9981 113.562 61.2812V60.5937H111.75V60.75C111.75 62.75 111.75 64.9062 111.75 67V67.1562H113.625V66.6875C113.609 66.4795 113.609 66.2705 113.625 66.0625C113.625 65.6562 113.625 65.3437 113.625 65.0625C113.625 64.7812 113.625 64.5 113.625 64.25C113.625 64 113.625 63.75 113.625 63.5625C113.625 62.5312 114.188 62.0625 114.906 62.0625C115.625 62.0625 115.906 62.4375 115.937 63.25C115.969 64.0625 115.937 65.5937 115.937 67V67.1562H117.844V67C117.844 66.625 117.844 66.3125 117.844 66.0312" fill="#008C4F"/>
<path d="M121.875 60.4375C121.395 60.4391 120.92 60.5237 120.469 60.6875C120.031 60.8311 119.635 61.0776 119.313 61.4063C118.956 61.7547 118.688 62.1833 118.531 62.6563C118.341 63.2189 118.267 63.8142 118.313 64.4063C118.313 64.9929 118.452 65.5712 118.719 66.0938C118.931 66.5108 119.27 66.8499 119.687 67.0625C120.058 67.2743 120.479 67.3823 120.906 67.375C121.29 67.3816 121.667 67.2844 122 67.0938C122.218 66.9524 122.417 66.7845 122.594 66.5938C122.653 67.0293 122.653 67.4708 122.594 67.9063C122.573 68.0371 122.526 68.1625 122.456 68.2752C122.387 68.3878 122.295 68.4855 122.187 68.5625C121.944 68.7131 121.661 68.7891 121.375 68.7813C120.673 68.7395 119.985 68.5701 119.344 68.2813H119.094L119.281 70.0313C119.66 70.1425 120.047 70.226 120.438 70.2813C120.874 70.3119 121.313 70.3119 121.75 70.2813C122.454 70.3111 123.148 70.1019 123.719 69.6875C123.964 69.4017 124.146 69.0677 124.254 68.707C124.361 68.3463 124.392 67.9671 124.344 67.5938C124.344 65.125 124.344 62.875 124.344 60.875C123.576 60.6813 122.791 60.5662 122 60.5313L121.875 60.4375ZM122.656 64.375C122.632 64.7961 122.479 65.1996 122.219 65.5313C122.127 65.6524 122.009 65.7517 121.874 65.822C121.739 65.8922 121.59 65.9317 121.438 65.9375C121.279 65.9363 121.122 65.9024 120.977 65.8379C120.831 65.7734 120.701 65.6796 120.594 65.5625C120.311 65.2336 120.165 64.8084 120.187 64.375C120.158 63.9133 120.244 63.4514 120.438 63.0313C120.568 62.7417 120.787 62.501 121.063 62.3438C121.341 62.1944 121.653 62.1191 121.969 62.125C122.207 62.0881 122.449 62.0881 122.687 62.125C122.687 63.1875 122.687 63.9688 122.687 64.3125" fill="#008C4F"/>
<path d="M141.094 65.8438V62.5C141.103 62.1938 141.049 61.889 140.937 61.6042C140.824 61.3194 140.654 61.0606 140.437 60.8438C139.987 60.481 139.422 60.2924 138.844 60.3125C138.377 60.3048 137.915 60.4121 137.5 60.625C137.276 60.7716 137.084 60.9631 136.937 61.1875C136.937 60.2188 136.937 59.3125 136.937 58.4375H135.094C135.094 61.5625 135.094 64.3125 135.094 67.0313V67.1875H136.969V67.0313C136.906 66.0427 136.906 65.0511 136.969 64.0625C136.961 63.5284 137.09 63.0012 137.344 62.5313C137.438 62.3873 137.568 62.2708 137.722 62.1939C137.876 62.1171 138.047 62.0825 138.219 62.0938C138.355 62.0761 138.493 62.0894 138.622 62.1327C138.752 62.176 138.871 62.2481 138.969 62.3438C139.18 62.6216 139.291 62.9634 139.281 63.3125C139.281 64.4063 139.281 65.6563 139.281 67.0313V67.1875H141.187V67.0313C141.187 66.5938 141.187 66.1563 141.187 65.7188" fill="#008C4F"/>
<path d="M161.375 66.1875V63.4375C161.392 63.1565 161.392 62.8747 161.375 62.5937C161.368 62.219 161.294 61.8485 161.156 61.5C160.992 61.1692 160.73 60.8966 160.406 60.7187C160.023 60.5122 159.591 60.415 159.156 60.4375C158.803 60.4134 158.449 60.4779 158.127 60.6253C157.805 60.7726 157.525 60.9981 157.312 61.2812V60.5937H155.5V60.75C155.5 62.7812 155.5 64.9375 155.5 67V67.1562H157.375V66.625C157.359 66.4378 157.359 66.2497 157.375 66.0625V64.25C157.358 64.0211 157.358 63.7914 157.375 63.5625C157.375 62.5312 157.906 62.0625 158.625 62.0625C159.344 62.0625 159.625 62.4375 159.656 63.25C159.687 64.0625 159.656 65.5937 159.656 67V67.1562H161.562V67C161.562 66.6562 161.562 66.3125 161.562 66.0312" fill="#008C4F"/>
<path d="M165.625 60.4375C165.145 60.4391 164.67 60.5237 164.219 60.6875C163.781 60.8311 163.385 61.0776 163.063 61.4063C162.711 61.7583 162.443 62.1857 162.281 62.6563C162.107 63.2223 162.032 63.8146 162.063 64.4063C162.063 64.9929 162.202 65.5712 162.469 66.0938C162.681 66.5108 163.02 66.8499 163.437 67.0625C163.808 67.2743 164.229 67.3823 164.656 67.375C165.04 67.3816 165.417 67.2844 165.75 67.0938C165.968 66.9524 166.167 66.7845 166.344 66.5938C166.403 67.0293 166.403 67.4708 166.344 67.9063C166.298 68.1617 166.166 68.3936 165.969 68.5625C165.723 68.7084 165.442 68.784 165.156 68.7813C164.444 68.7433 163.745 68.5738 163.094 68.2813H162.844L163.031 70.0313C163.41 70.1425 163.797 70.226 164.188 70.2813C164.624 70.3119 165.063 70.3119 165.5 70.2813C166.204 70.3111 166.898 70.1019 167.469 69.6875C167.727 69.4099 167.917 69.0766 168.026 68.7135C168.134 68.3505 168.157 67.9673 168.094 67.5938C168.094 65.0625 168.094 62.875 168.094 60.875C167.326 60.6813 166.541 60.5662 165.75 60.5313L165.625 60.4375ZM166.406 64.375C166.368 64.793 166.217 65.1927 165.969 65.5313C165.88 65.6486 165.767 65.7455 165.638 65.8156C165.508 65.8856 165.366 65.9272 165.219 65.9375C165.055 65.9387 164.893 65.9061 164.742 65.8415C164.591 65.777 164.456 65.682 164.344 65.5625C164.061 65.2336 163.915 64.8084 163.937 64.375C163.908 63.9133 163.994 63.4514 164.188 63.0313C164.318 62.7417 164.537 62.501 164.813 62.3438C165.091 62.1944 165.403 62.1191 165.719 62.125C165.957 62.0865 166.199 62.0865 166.437 62.125C166.437 63.2188 166.437 63.9688 166.437 64.3125" fill="#008C4F"/>
<path d="M178.812 59.375C178.481 59.0448 178.085 58.7858 177.65 58.6138C177.215 58.4419 176.749 58.3606 176.281 58.375H172.625C172.625 59.7188 172.625 60.875 172.625 61.8438H171.875V63.4063H172.937C172.937 64.6875 172.937 65.875 172.937 66.9688V67.125H176.062C176.878 67.1463 177.681 66.9291 178.375 66.5C178.978 66.0615 179.435 65.4517 179.687 64.75C179.957 63.9561 180.073 63.1185 180.031 62.2813C180.077 61.1384 179.686 60.0211 178.937 59.1563L178.812 59.375ZM178 63.8125C177.869 64.271 177.595 64.6759 177.219 64.9688C176.769 65.2755 176.232 65.429 175.687 65.4063H174.687V63.3438H176.469V61.75H174.656V59.8125H176.344C176.723 59.7917 177.098 59.902 177.406 60.125C177.676 60.3611 177.88 60.6623 178 61C178.145 61.4859 178.188 61.9968 178.125 62.5C178.161 63.0383 178.098 63.5786 177.937 64.0938" fill="#008C4F"/>
<path d="M186.156 62.0938C185.924 61.5952 185.556 61.1726 185.094 60.875C184.593 60.5777 184.02 60.4262 183.437 60.4375C182.849 60.4041 182.266 60.5628 181.775 60.8898C181.285 61.2167 180.914 61.694 180.719 62.25C180.469 62.8418 180.362 63.4841 180.406 64.125C180.426 64.5519 180.51 64.9734 180.656 65.375C180.783 65.7647 180.984 66.1257 181.25 66.4375C181.521 66.7618 181.863 67.0186 182.25 67.1875C182.66 67.3824 183.109 67.4787 183.562 67.4688C184.198 67.4892 184.823 67.3027 185.344 66.9375C185.804 66.6001 186.153 66.1319 186.344 65.5938C186.538 65.0317 186.623 64.4377 186.594 63.8438C186.571 63.2364 186.422 62.6404 186.156 62.0938ZM184.5 65.2188C184.427 65.4046 184.297 65.5624 184.129 65.6692C183.96 65.776 183.762 65.8262 183.562 65.8125C183.375 65.8188 183.189 65.7794 183.02 65.6977C182.851 65.616 182.705 65.4946 182.594 65.3438C182.334 64.9663 182.193 64.5204 182.187 64.0625C182.128 63.4981 182.248 62.9293 182.531 62.4375C182.626 62.2662 182.767 62.1253 182.938 62.0312C183.11 61.9371 183.305 61.8938 183.5 61.9062C183.685 61.9202 183.863 61.9824 184.017 62.0865C184.17 62.1907 184.294 62.3333 184.375 62.5C184.609 62.9084 184.728 63.3729 184.719 63.8438C184.765 64.3601 184.668 64.8792 184.437 65.3438" fill="#008C4F"/>
<path d="M183.344 59.25L183.781 59.8125H185L184.312 58.4062H182.312L181.687 59.8125H182.906L183.344 59.25Z" fill="#008C4F"/>
<path d="M193.219 66.1875V63.4375C193.234 63.1565 193.234 62.8748 193.219 62.5937C193.212 62.219 193.138 61.8485 193 61.5C192.83 61.183 192.583 60.9142 192.281 60.7187C191.884 60.5206 191.444 60.424 191 60.4375C190.647 60.4134 190.293 60.4779 189.971 60.6253C189.649 60.7726 189.369 60.9981 189.156 61.2812V60.5937H187.344V60.75C187.344 62.8125 187.344 64.9687 187.344 67V67.1562H189.219V67C189.219 66.75 189.219 66.4375 189.219 66.0625V64.25C189.219 64 189.219 63.75 189.219 63.5625C189.219 62.5312 189.781 62.0625 190.5 62.0625C191.219 62.0625 191.5 62.4375 191.531 63.25C191.562 64.0625 191.531 65.5625 191.531 67V67.1562H193.469V67C193.487 66.6773 193.487 66.3539 193.469 66.0312" fill="#008C4F"/>
<path d="M200 60.8125C199.232 60.6188 198.447 60.5037 197.656 60.4688C197.186 60.4674 196.72 60.5521 196.281 60.7188C195.831 60.8541 195.422 61.1014 195.094 61.4375C194.742 61.7895 194.475 62.217 194.313 62.6875C194.138 63.2536 194.064 63.8459 194.094 64.4375C194.094 65.0242 194.233 65.6024 194.5 66.125C194.713 66.542 195.052 66.8811 195.469 67.0938C195.84 67.3056 196.261 67.4136 196.687 67.4063C197.08 67.4096 197.467 67.3128 197.812 67.125C198.028 66.9926 198.218 66.8234 198.375 66.625C198.434 67.0605 198.434 67.502 198.375 67.9375C198.36 68.0701 198.315 68.1976 198.245 68.3111C198.175 68.4245 198.081 68.521 197.969 68.5938C197.807 68.694 197.627 68.7597 197.438 68.7866C197.25 68.8135 197.058 68.801 196.875 68.75C196.163 68.7121 195.463 68.5425 194.813 68.25H194.594L194.75 70C195.129 70.1112 195.515 70.1948 195.906 70.25H197.219C197.923 70.2799 198.617 70.0706 199.187 69.6563C199.445 69.3776 199.638 69.0453 199.751 68.6832C199.865 68.3211 199.896 67.9383 199.844 67.5625C199.844 65.0938 199.844 62.8438 199.844 60.8438L200 60.8125ZM198.187 64.2813C198.163 64.7024 198.011 65.1059 197.75 65.4375C197.661 65.5548 197.548 65.6517 197.419 65.7218C197.29 65.7919 197.147 65.8335 197 65.8438C196.836 65.845 196.674 65.8123 196.523 65.7478C196.373 65.6833 196.237 65.5883 196.125 65.4688C195.842 65.1399 195.696 64.7146 195.719 64.2813C195.689 63.8195 195.775 63.3577 195.969 62.9375C196.099 62.648 196.318 62.4073 196.594 62.25C196.882 62.0968 197.205 62.0214 197.531 62.0313C197.759 61.994 197.991 61.994 198.219 62.0313C198.219 63.125 198.219 63.875 198.219 64.2188" fill="#008C4F"/>
<path d="M147.687 61.9375C148.21 61.7636 148.653 61.409 148.937 60.9375C149.023 60.6967 149.027 60.4341 148.948 60.191C148.869 59.9479 148.711 59.7378 148.5 59.5937C148.294 59.4609 148.057 59.3854 147.812 59.375C147.498 59.3984 147.196 59.5064 146.937 59.6875L147.187 60.375C147.29 60.3471 147.398 60.3471 147.5 60.375H147.656C147.712 60.4464 147.742 60.5344 147.742 60.625C147.742 60.7156 147.712 60.8036 147.656 60.875C147.656 60.875 147.656 60.875 147.656 61.0313V60.7813H145.844C145.906 61.9679 145.906 63.1571 145.844 64.3438C145.844 64.9688 145.531 65.6875 144.687 65.6875C143.844 65.6875 143.719 65.3125 143.687 64.5C143.656 63.6875 143.687 61.375 143.687 60.7813H141.844C141.844 62.0625 141.844 63.0313 141.844 63.9063C141.844 64.7813 141.844 64.9688 141.844 65.4063C141.834 65.6947 141.885 65.9821 141.995 66.2491C142.104 66.5161 142.27 66.7567 142.48 66.9549C142.69 67.153 142.939 67.3041 143.212 67.3981C143.485 67.4921 143.775 67.5268 144.062 67.5C144.405 67.5261 144.749 67.4686 145.065 67.3326C145.381 67.1965 145.659 66.9859 145.875 66.7188V67.3437H147.594V67.1875C147.594 65.5625 147.594 63.8437 147.594 61.9687" fill="#008C4F"/>
<path d="M153.969 61.5937C154.231 61.4071 154.445 61.1607 154.594 60.875C154.677 60.6388 154.68 60.3813 154.601 60.1435C154.521 59.9058 154.365 59.7013 154.156 59.5625C153.967 59.4205 153.737 59.3438 153.5 59.3438C153.176 59.3662 152.863 59.474 152.594 59.6563L152.844 60.3437C152.956 60.3132 153.075 60.3132 153.187 60.3437H153.344C153.395 60.4171 153.422 60.5044 153.422 60.5937C153.422 60.6831 153.395 60.7704 153.344 60.8437C153.264 60.9411 153.169 61.0255 153.062 61.0937C152.57 60.7756 151.993 60.6124 151.406 60.625C151.006 60.6144 150.608 60.6867 150.237 60.8373C149.866 60.9878 149.53 61.2135 149.25 61.5C148.921 61.8788 148.674 62.3212 148.523 62.7996C148.373 63.2781 148.322 63.7824 148.375 64.2812C148.354 64.7046 148.419 65.1278 148.566 65.5252C148.714 65.9225 148.941 66.2857 149.233 66.5927C149.525 66.8996 149.877 67.1439 150.267 67.3106C150.657 67.4773 151.076 67.563 151.5 67.5625C151.891 67.5825 152.282 67.5206 152.648 67.3807C153.014 67.2408 153.347 67.026 153.625 66.75C154.269 65.9851 154.583 64.9963 154.5 64C154.495 63.1651 154.221 62.354 153.719 61.6875L153.969 61.5937ZM152.5 65.625C152.396 65.7332 152.269 65.8172 152.128 65.8712C151.988 65.9252 151.838 65.9478 151.688 65.9375C150.781 65.9375 150.406 65 150.344 64.2187C150.263 63.5769 150.43 62.9283 150.812 62.4062C150.919 62.3013 151.047 62.2194 151.186 62.1657C151.326 62.1119 151.475 62.0874 151.625 62.0938C152.75 62.0938 152.937 63.3437 152.969 63.875C153.043 64.4969 152.875 65.1235 152.5 65.625Z" fill="#008C4F"/>
<path d="M134.375 60.8125C134.348 60.3937 134.253 59.9821 134.094 59.5937C133.943 59.2475 133.693 58.9538 133.375 58.75C133.066 58.5264 132.694 58.4062 132.312 58.4063H128.844C128.844 59.2188 128.844 60 128.844 60.6875C128.844 61.375 128.844 62.125 128.844 62.75V64.9375C128.844 65.7188 128.844 66.4063 128.844 67V67.1562H130.687V67C130.687 66.375 130.531 61.0625 130.531 60.5625V59.875H131.531C131.795 59.8521 132.059 59.9181 132.281 60.0625C132.373 60.157 132.442 60.2703 132.485 60.3944C132.529 60.5185 132.544 60.6505 132.531 60.7813C132.568 61.114 132.478 61.4483 132.281 61.7187C132.084 61.9244 131.83 62.0669 131.552 62.1281C131.274 62.1893 130.984 62.1665 130.719 62.0625L131.062 63.625C131.817 63.7625 132.595 63.6179 133.25 63.2187C133.654 62.9599 133.961 62.5756 134.125 62.125C134.293 61.6762 134.368 61.1975 134.344 60.7188" fill="#008C4F"/>
<path d="M-1.3262e-06 32.3438C0.777329 39.0537 3.84579 45.2899 8.6875 50C8.15379 48.6053 8.03442 47.086 8.34375 45.625C9.28125 41.5 13.4375 38.625 19.3125 37.8125V17.9063C4.09375 15.3438 -0.812501 25 -1.3262e-06 32.3438Z" fill="#E49F15"/>
<path d="M57.9687 25.875C57.2179 19.1951 54.182 12.9799 49.375 8.28127C49.9251 9.67227 50.0449 11.1964 49.7188 12.6563C48.8125 16.7813 44.625 19.6563 38.75 20.4688V40.3125C53.9688 42.875 58.875 33.25 57.9687 25.875Z" fill="#E49F15"/>
<path d="M0.656242 22.6563C4.62499 17.2188 11.7187 14.125 24.8125 17.8125C47.8437 24.2813 55.25 9.375 42.125 3.125C38.1793 1.14237 33.8345 0.0828841 29.419 0.0266678C25.0036 -0.0295484 20.6332 0.918978 16.6383 2.80051C12.6434 4.68205 9.12868 7.44733 6.35987 10.8872C3.59106 14.3271 1.64069 18.3516 0.656242 22.6563Z" fill="#E49F15"/>
<path d="M57.4063 35.5625C53.4375 41 46.3438 44.0938 33.2188 40.4062C10.2188 33.9375 2.8125 48.9687 15.9375 55.125C19.8853 57.1075 24.2323 58.1659 28.6496 58.2203C33.0669 58.2746 37.4387 57.3234 41.434 55.4386C45.4294 53.5538 48.9437 50.7849 51.7109 47.3414C54.4781 43.8978 56.4257 39.8699 57.4063 35.5625Z" fill="#E49F15"/>
</g>
<defs>
<clipPath id="clip0">
<rect width="201" height="71" fill="white"/>
</clipPath>
</defs>
</svg>
