<svg width="24" height="24" viewBox="0 0 24 24" fill="none" xmlns="http://www.w3.org/2000/svg">
<path d="M17.4928 16.2033L17.1269 16.6596L17.5422 17.0715L21.246 20.7454C21.3069 20.8103 21.3409 20.8959 21.3409 20.985C21.3409 21.0744 21.3067 21.1603 21.2454 21.2252C21.2135 21.2566 21.1759 21.2817 21.1345 21.2989C21.0919 21.3167 21.0461 21.3258 20.9999 21.3258C20.9537 21.3258 20.908 21.3167 20.8653 21.2989C20.8227 21.2811 20.7839 21.2551 20.7514 21.2223L20.7495 21.2204L17.0695 17.5404L16.6576 17.1285L16.2032 17.4929C14.5373 18.829 12.4228 19.4761 10.2945 19.301C8.16617 19.1259 6.18581 18.1421 4.76062 16.5517C3.33542 14.9614 2.57372 12.8854 2.63213 10.7507C2.69054 8.616 3.56463 6.5848 5.07467 5.07476C6.5847 3.56473 8.6159 2.69064 10.7506 2.63223C12.8853 2.57382 14.9613 3.33552 16.5516 4.76071C18.142 6.18591 19.1258 8.16627 19.3009 10.2946C19.476 12.4229 18.8289 14.5374 17.4928 16.2033ZM6.74979 17.3607C8.00783 18.2013 9.48688 18.65 10.9999 18.65C13.0288 18.65 14.9746 17.844 16.4093 16.4094C17.8439 14.9747 18.6499 13.0289 18.6499 11C18.6499 9.48698 18.2012 8.00793 17.3606 6.74989C16.5201 5.49186 15.3253 4.51134 13.9274 3.93233C12.5296 3.35331 10.9914 3.20182 9.50746 3.497C8.02351 3.79217 6.66041 4.52077 5.59054 5.59064C4.52067 6.66051 3.79207 8.02361 3.4969 9.50756C3.20172 10.9915 3.35322 12.5297 3.93223 13.9275C4.51124 15.3254 5.49176 16.5202 6.74979 17.3607Z" fill="black" stroke="#008C44" stroke-width="1.3"/>
</svg>
